<svg xmlns="http://www.w3.org/2000/svg" viewBox="0 0 400 300" fill="none">
  <defs>
    <linearGradient id="bg" x1="0" y1="0" x2="400" y2="300">
      <stop offset="0%" stop-color="#7c2d12"/>
      <stop offset="100%" stop-color="#9a3412"/>
    </linearGradient>
    <radialGradient id="orb" cx="50%" cy="50%" r="50%">
      <stop offset="0%" stop-color="#fbbf24"/>
      <stop offset="50%" stop-color="#f472b6"/>
      <stop offset="100%" stop-color="#818cf8"/>
    </radialGradient>
  </defs>
  <rect width="400" height="300" fill="url(#bg)"/>
  <circle cx="200" cy="140" r="70" fill="url(#orb)" opacity="0.7"/>
  <circle cx="200" cy="140" r="90" stroke="#fb923c" stroke-width="2" fill="none" opacity="0.4"/>
  <path d="M120 80 L130 100 L150 95 L135 115 L155 125 L130 130 L125 150 L110 130 L85 125 L105 115 L90 95 L110 100 Z" fill="#fde68a" opacity="0.8"/>
  <path d="M280 200 L288 215 L305 212 L293 225 L308 235 L288 238 L284 252 L272 238 L252 235 L268 225 L258 212 L275 215 Z" fill="#fbcfe8" opacity="0.8"/>
  <rect x="60" y="200" width="80" height="60" rx="8" fill="#431407" opacity="0.5" stroke="#fb923c" stroke-width="1"/>
  <rect x="260" y="50" width="80" height="60" rx="8" fill="#431407" opacity="0.5" stroke="#f472b6" stroke-width="1"/>
</svg>